HIERARCHY
ROOT Lex4_Hips
{
  OFFSET -0.563458 94.7827 2.4889
  CHANNELS 6 Xposition Yposition Zposition Zrotation Xrotation Yrotation
  JOINT Lex4_LeftUpLeg
  {
    OFFSET 11.2507 0 0
    CHANNELS 6 Xposition Yposition Zposition Zrotation Xrotation Yrotation
    JOINT Lex4_LeftLeg
    {
      OFFSET 0 -48.2125 0
      CHANNELS 6 Xposition Yposition Zposition Zrotation Xrotation Yrotation
      JOINT Lex4_LeftFoot
      {
        OFFSET 0 -41.8358 0
        CHANNELS 6 Xposition Yposition Zposition Zrotation Xrotation Yrotation
        JOINT Lex4_LeftToeBase
        {
          OFFSET 0 0 13.7184
          CHANNELS 6 Xposition Yposition Zposition Zrotation Xrotation Yrotation
          JOINT Lex4_LeftToeEnd
          {
            OFFSET 0 0 7.5
            CHANNELS 6 Xposition Yposition Zposition Zrotation Xrotation Yrotation
            End Site
            {
              OFFSET 0 0 0
            }
          }
        }
      }
    }
  }
  JOINT Lex4_RightUpLeg
  {
    OFFSET -11.2507 0 0
    CHANNELS 6 Xposition Yposition Zposition Zrotation Xrotation Yrotation
    JOINT Lex4_RightLeg
    {
      OFFSET 0 -48.2125 0
      CHANNELS 6 Xposition Yposition Zposition Zrotation Xrotation Yrotation
      JOINT Lex4_RightFoot
      {
        OFFSET 0 -41.8358 0
        CHANNELS 6 Xposition Yposition Zposition Zrotation Xrotation Yrotation
        JOINT Lex4_RightToeBase
        {
          OFFSET 0 0 13.7184
          CHANNELS 6 Xposition Yposition Zposition Zrotation Xrotation Yrotation
          JOINT Lex4_RightToeEnd
          {
            OFFSET 0 0 7.5
            CHANNELS 6 Xposition Yposition Zposition Zrotation Xrotation Yrotation
            End Site
            {
              OFFSET 0 0 0
            }
          }
        }
      }
    }
  }
  JOINT Lex4_Spine
  {
    OFFSET 0 14.1428 0
    CHANNELS 6 Xposition Yposition Zposition Zrotation Xrotation Yrotation
    JOINT Lex4_Head
    {
      OFFSET 0 48.2444 0
      CHANNELS 6 Xposition Yposition Zposition Zrotation Xrotation Yrotation
      End Site
      {
        OFFSET 0 11.5 0
      }
    }
    JOINT Lex4_LabelingCluster_1
    {
      OFFSET 6.91668 29.7232 -14.2315
      CHANNELS 6 Xposition Yposition Zposition Zrotation Xrotation Yrotation
      End Site
      {
        OFFSET 0 0 0
      }
    }
    JOINT Lex4_LeftShoulder
    {
      OFFSET 0 33.7901 0
      CHANNELS 6 Xposition Yposition Zposition Zrotation Xrotation Yrotation
      JOINT Lex4_LeftArm
      {
        OFFSET 0 19.8458 0
        CHANNELS 6 Xposition Yposition Zposition Zrotation Xrotation Yrotation
        JOINT Lex4_LeftForeArm
        {
          OFFSET 0 31.3007 0
          CHANNELS 6 Xposition Yposition Zposition Zrotation Xrotation Yrotation
          JOINT Lex4_LeftHand
          {
            OFFSET 0 25.4109 0
            CHANNELS 6 Xposition Yposition Zposition Zrotation Xrotation Yrotation
            JOINT Lex4_LeftHandEnd
            {
              OFFSET 0 10 0
              CHANNELS 6 Xposition Yposition Zposition Zrotation Xrotation Yrotation
              End Site
              {
                OFFSET 0 0 0
              }
            }
            JOINT Lex4_LeftHandThumb1
            {
              OFFSET 0 0 0
              CHANNELS 6 Xposition Yposition Zposition Zrotation Xrotation Yrotation
              JOINT Lex4_LeftHandThumb2
              {
                OFFSET 0 0 10
                CHANNELS 6 Xposition Yposition Zposition Zrotation Xrotation Yrotation
                End Site
                {
                  OFFSET 0 0 0
                }
              }
            }
          }
        }
      }
    }
    JOINT Lex4_RightShoulder
    {
      OFFSET 0 33.7901 0
      CHANNELS 6 Xposition Yposition Zposition Zrotation Xrotation Yrotation
      JOINT Lex4_RightArm
      {
        OFFSET 0 19.8458 0
        CHANNELS 6 Xposition Yposition Zposition Zrotation Xrotation Yrotation
        JOINT Lex4_RightForeArm
        {
          OFFSET 0 31.3007 0
          CHANNELS 6 Xposition Yposition Zposition Zrotation Xrotation Yrotation
          JOINT Lex4_RightHand
          {
            OFFSET 0 25.4109 0
            CHANNELS 6 Xposition Yposition Zposition Zrotation Xrotation Yrotation
            JOINT Lex4_RightHandEnd
            {
              OFFSET 0 10 0
              CHANNELS 6 Xposition Yposition Zposition Zrotation Xrotation Yrotation
              End Site
              {
                OFFSET 0 0 0
              }
            }
            JOINT Lex4_RightHandThumb1
            {
              OFFSET 0 0 0
              CHANNELS 6 Xposition Yposition Zposition Zrotation Xrotation Yrotation
              JOINT Lex4_RightHandThumb2
              {
                OFFSET 0 0 10
                CHANNELS 6 Xposition Yposition Zposition Zrotation Xrotation Yrotation
                End Site
                {
                  OFFSET 0 0 0
                }
              }
            }
          }
        }
      }
    }
  }
}
MOTION
Frames:	4
Frame Time:	0.0416667
-0.732452 94.9437 5.52825 1.62686 20.8589 176.991 11.2507 0 0 -0.825205 32.3391 18.6606 0 -48.2125 0 -1.59028e-015 -5.15649 -0 -7.10543e-015 -41.8358 0 -2.65746 12.1081 4.06626 -3.55271e-015 -4.44089e-016 13.7184 1.59028e-015 -16.1418 -0 -3.55271e-015 6.66134e-016 7.5 -1.98785e-016 0 -3.18055e-015 -11.2507 0 -7.10543e-015 -2.96509 31.4191 -5.83162 3.55271e-015 -48.2125 3.55271e-015 -1.76268e-015 -6.18723 -1.59959e-015 -3.55271e-015 -41.8358 -3.55271e-015 4.85359 15.0769 -6.64998 7.10543e-015 -8.88178e-016 13.7184 -1.59028e-015 -19.3651 -0 0 6.66134e-016 7.5 -2.25962e-016 -1.14922e-016 3.18055e-015 0 14.1428 -7.10543e-015 2.96168 21.3712 -1.85286 0 48.2444 0 -7.68757 8.68383 -3.33488 6.96325 29.5174 -14.5281 85.2007 -7.39344 -168.208 -8.88178e-016 33.7901 0 -80.7582 -13.3868 2.66688 -2.84217e-014 19.8458 -1.77636e-015 -24.6234 22.1169 -53.9104 -1.42109e-014 31.3007 0 -4.40651e-007 -4.40628 45.1259 0 25.4109 -3.55271e-015 13.2587 -6.8567 4.8052e-015 -2.84217e-014 10 3.55271e-015 4.96962e-017 1.98785e-016 -0 0 0 0 15.0933 -21.7379 36.0619 0 0 10 0 0 -0 -8.88178e-016 33.7901 0 68.8859 -13.7077 -9.94934 0 19.8458 0 32.6847 25.2425 -4.24456 2.84217e-014 31.3007 0 -2.51305e-007 9.97987 20.7731 0 25.4109 -3.55271e-015 -8.89681 -11.2763 -9.72949e-015 -2.84217e-014 10 7.10543e-015 1.14301e-015 -3.97569e-016 -3.18055e-015 0 0 0 -13.7831 -20.2443 -35.3345 0 0 10 -7.95139e-016 0 1.59028e-015 
-0.737346 94.9448 5.53434 1.62449 20.864 176.991 11.2507 0 3.55271e-015 -0.832545 32.3402 18.6608 0 -48.2125 3.55271e-015 -1.73386e-015 -5.15929 -1.59675e-015 -3.55271e-015 -41.8358 -3.55271e-015 -2.66927 12.1087 4.06627 3.55271e-015 0 13.7184 7.95139e-016 -16.128 -0 -3.55271e-015 1.11022e-015 7.5 9.93923e-017 7.95139e-016 -0 -11.2507 1.42109e-014 3.55271e-015 -2.97259 31.42 -5.81152 0 -48.2125 3.55271e-015 -1.96146e-015 -6.18723 -1.59959e-015 -3.55271e-015 -41.8358 -3.55271e-015 4.87236 15.0686 -6.66575 0 -2.22045e-016 13.7184 -3.18055e-015 -19.3521 -0 0 6.66134e-016 7.5 7.99798e-017 -9.00743e-017 6.36111e-015 -2.77556e-016 14.1428 7.10543e-015 2.97041 21.3618 -1.85025 0 48.2444 -1.77636e-015 -7.66946 8.765 -3.35204 6.96626 29.5208 -14.5182 85.2118 -7.35455 -168.198 0 33.7901 0 -80.7575 -13.347 2.66644 5.68434e-014 19.8458 -1.77636e-015 -24.6101 22.1015 -53.8818 1.42109e-014 31.3007 -1.42109e-014 -6.84093e-006 -4.39574 45.0469 0 25.4109 0 13.2783 -6.82419 1.60162e-015 0 10 0 -3.97569e-016 0 1.59028e-015 0 0 0 15.0933 -21.7379 36.0619 -1.42109e-014 -1.42109e-014 10 -3.53113e-031 3.18055e-015 6.36111e-015 0 33.7901 0 68.8843 -13.695 -9.95263 0 19.8458 0 32.6608 25.2088 -4.26047 0 31.3007 0 7.97372e-006 9.99571 20.806 0 25.4109 3.55271e-015 -8.91735 -11.2895 -0 2.84217e-014 10 7.10543e-015 -1.39149e-015 -9.93923e-016 3.18055e-015 0 0 0 -13.7831 -20.2443 -35.3345 -2.84217e-014 -7.10543e-015 10 -0 0 3.18055e-015 
-0.760407 94.9456 5.57646 1.59727 20.8768 176.991 11.2507 -1.42109e-014 -7.10543e-015 -0.873718 32.3263 18.6263 0 -48.2125 0 -1.44674e-015 -5.1576 1.59674e-015 -3.55271e-015 -41.8358 -3.55271e-015 -2.68506 12.112 4.08952 3.55271e-015 8.88178e-016 13.7184 2.45684e-016 -16.0993 6.62076e-015 -3.55271e-015 6.66134e-016 7.5 1.98785e-016 -3.97569e-016 -3.18055e-015 -11.2507 0 3.55271e-015 -3.01643 31.4209 -5.79058 0 -48.2125 -3.55271e-015 -1.93572e-015 -6.19873 -3.19926e-015 0 -41.8358 -3.55271e-015 4.87512 15.0773 -6.67464 0 -2.22045e-016 13.7184 -3.03124e-015 -19.3679 -6.74269e-015 0 8.88178e-016 7.5 1.3317e-016 -2.40716e-017 -0 -1.11022e-016 14.1428 0 3.015 21.3733 -1.96583 8.88178e-016 48.2444 0 -7.63373 8.93733 -3.31443 6.96495 29.5167 -14.519 85.2068 -7.34314 -168.14 0 33.7901 0 -80.7689 -13.3828 2.68461 -2.84217e-014 19.8458 0 -24.4822 22.1704 -53.8711 -2.84217e-014 31.3007 1.42109e-014 -7.93618e-007 -4.48914 45.1263 2.84217e-014 25.4109 0 13.3072 -6.83125 3.2033e-015 2.84217e-014 10 0 1.04362e-015 0 -0 0 0 0 15.0933 -21.7379 36.0619 1.42109e-014 0 10 3.18055e-015 3.18055e-015 -0 0 33.7901 0 68.8621 -13.7 -9.95404 0 19.8458 0 32.5698 25.2459 -4.2155 0 31.3007 0 -2.40893e-007 9.99079 20.7496 0 25.4109 -7.10543e-015 -8.94267 -11.3057 6.48699e-015 0 10 0 1.49089e-015 -3.97569e-016 -3.18055e-015 0 0 0 -13.7831 -20.2443 -35.3345 0 0 10 1.59028e-015 3.18055e-015 -1.59028e-015 
-0.774343 94.9436 5.62785 1.60503 20.897 176.97 11.2507 0 -3.55271e-015 -0.89227 32.3042 18.6388 0 -48.2125 0 -1.73305e-015 -5.13017 -1.59667e-015 -3.55271e-015 -41.8358 -3.55271e-015 -2.65831 12.0974 4.10182 0 -4.44089e-016 13.7184 3.3018e-015 -16.0728 3.30994e-015 0 8.88178e-016 7.5 -9.93923e-017 -3.97569e-016 -0 -11.2507 1.42109e-014 0 -3.04163 31.4017 -5.76377 3.55271e-015 -48.2125 3.55271e-015 -1.98785e-016 -6.18498 -0 -3.55271e-015 -41.8358 -3.55271e-015 4.89857 15.0525 -6.6666 0 -4.44089e-016 13.7184 1.56875e-016 -19.3073 -6.74019e-015 0 4.44089e-016 7.5 1.5996e-016 1.49089e-016 -0 5.55112e-017 14.1428 0 3.0691 21.4014 -2.00908 0 48.2444 0 -7.55421 9.11905 -3.37673 6.972 29.5138 -14.5153 85.2451 -7.39505 -168.087 0 33.7901 -1.77636e-015 -80.7161 -13.3531 2.61197 0 19.8458 0 -24.4376 22.1941 -53.9088 0 31.3007 0 3.16382e-005 -4.62244 44.9555 -2.84217e-014 25.4109 -3.55271e-015 13.338 -6.84159 -1.60168e-015 2.84217e-014 10 0 1.06847e-015 -1.98785e-016 1.59028e-015 0 0 0 15.0933 -21.7379 36.0619 0 2.84217e-014 10 1.59028e-015 -3.18055e-015 -0 0 33.7901 -1.77636e-015 68.8288 -13.6906 -9.8969 -2.84217e-014 19.8458 3.55271e-015 32.5512 25.1917 -4.23163 2.84217e-014 31.3007 0 -1.05907e-007 9.89351 20.7869 0 25.4109 3.55271e-015 -8.84749 -11.3862 -6.48882e-015 0 10 0 7.95139e-016 0 -0 0 0 0 -13.7831 -20.2443 -35.3345 0 0 10 -2.64834e-031 3.18055e-015 4.77083e-015 
